<svg xmlns="http://www.w3.org/2000/svg" width="150" height="68" viewBox="0 0 150 68" fill="#ff00b4"><path d="M51 0.0244886C50.3115 2.4732 49.6231 4.92191 48.9346 7.44408C48.352 7.44408 47.8489 7.44408 47.3458 7.44408C37.6277 7.44408 27.8832 7.46857 18.1651 7.41959C17.1059 7.41959 16.6028 7.66446 16.3645 8.66843C15.8878 10.6764 15.2523 12.6598 14.6433 14.7902C22.6931 14.7902 30.6106 14.7902 38.7399 14.7902C38.0249 17.2634 37.3894 19.5652 36.648 21.867C36.5685 22.0874 35.8801 22.2343 35.4829 22.2343C28.8894 22.2343 22.3224 22.2343 15.729 22.2343C12.4455 22.2343 12.4455 22.2343 11.5717 25.0748C11.148 26.4706 10.7243 27.8418 10.3271 29.2376C10.3006 29.3111 10.3536 29.3845 10.3536 29.5559C20.9455 29.5559 31.5374 29.5559 42.3676 29.5559C41.6262 32.1271 40.9377 34.5268 40.2227 37C26.7446 37 13.3723 37 0 37C0 36.8531 0 36.6817 0 36.5347C0.158879 36.1919 0.344237 35.8491 0.450156 35.4818C2.93925 26.9603 5.42835 18.4388 7.91745 9.91727C8.87072 6.61152 9.79751 3.30576 10.7243 0C24.1495 0.0244871 37.5748 0.0244886 51 0.0244886Z" fill="white"></path><path d="M150 36.9741C143.355 36.9741 136.737 36.9741 129.987 36.9741C130.672 34.6005 131.279 32.3493 132.017 30.1225C132.096 29.8534 132.782 29.6087 133.177 29.5842C135.366 29.5353 137.554 29.5597 139.875 29.5597C139.084 23.4178 138.319 17.4471 137.502 11.1583C137.106 11.6722 136.842 11.9903 136.605 12.3329C130.989 20.2122 125.372 28.0915 119.809 36.0198C119.308 36.7294 118.807 37.0231 117.884 36.9986C115.353 36.9252 112.821 36.9741 110 36.9741C110.343 36.4603 110.606 36.0932 110.87 35.7262C119.202 24.2253 127.535 12.7244 135.867 1.19903C136.131 0.831977 136.341 0.39152 136.552 0C139.268 0 141.958 0 144.674 0C144.726 0.22023 144.832 0.44046 144.858 0.68516C146.229 10.3997 147.601 20.1388 148.998 29.8534C149.288 31.9333 149.657 33.9888 150 36.0443C150 36.3379 150 36.656 150 36.9741Z" fill="white"></path><path d="M106 0C105.397 2.03065 104.769 4.03684 104.245 6.09196C103.983 7.07059 103.59 7.46204 102.41 7.43758C97.9563 7.36418 93.5022 7.43758 89.048 7.38865C88.1834 7.38865 87.8166 7.6333 87.5808 8.4162C84.9869 17.493 82.3406 26.5453 79.7467 35.5976C79.4585 36.6252 79.0655 37.0656 77.8341 36.9922C75.738 36.8698 73.6419 36.9677 71.3624 36.9677C74.2183 27.108 77.048 17.3707 79.9039 7.46204C74.5852 7.46204 69.3974 7.46204 64 7.46204C64.7336 4.86868 65.4148 2.42211 66.1223 0C79.4323 0 92.7162 0 106 0Z" fill="white"></path><path fill-rule="evenodd" clip-rule="evenodd" d="M146 50H5V49H146V50Z" fill="white"></path><path d="M32.5646 59.1492V59.9696H30.1718V67.8508H29.3928V59.9696H27V59.1492H32.5646Z" fill="white"></path><path d="M39.5209 67.8508L37.6957 64.3702H35.5143V67.8508H34.7353V59.1492H37.8515C38.497 59.1492 39.046 59.4061 39.4986 59.9199C39.9586 60.4254 40.1886 61.0387 40.1886 61.7597C40.1886 62.3481 40.0291 62.8743 39.7101 63.3384C39.3984 63.7942 38.9978 64.1008 38.5081 64.2583L40.4112 67.8508H39.5209ZM35.5143 59.9696V63.5497H37.8515C38.2818 63.5497 38.6491 63.3757 38.9533 63.0276C39.2575 62.6713 39.4096 62.2486 39.4096 61.7597C39.4096 61.2624 39.2575 60.8398 38.9533 60.4917C38.6491 60.1436 38.2818 59.9696 37.8515 59.9696H35.5143Z" fill="white"></path><path d="M47.4056 67.1547C46.8714 67.7182 46.174 68 45.3133 68C44.4526 68 43.7552 67.7182 43.221 67.1547C42.6868 66.5912 42.4197 65.837 42.4197 64.8923V59.1492H43.1987V64.8923C43.1987 65.5884 43.3842 66.1395 43.7552 66.5456C44.1262 66.9517 44.6455 67.1547 45.3133 67.1547C45.981 67.1547 46.5004 66.9517 46.8714 66.5456C47.2424 66.1395 47.4279 65.5884 47.4279 64.8923V59.1492H48.2069V64.8923C48.2069 65.837 47.9398 66.5912 47.4056 67.1547Z" fill="white"></path><path d="M54.5746 68C53.3949 68 52.4192 67.5649 51.6476 66.6948C50.8759 65.8246 50.4901 64.7597 50.4901 63.5C50.4901 62.2403 50.8759 61.1754 51.6476 60.3052C52.4192 59.4351 53.3949 59 54.5746 59C55.2943 59 55.9546 59.1948 56.5556 59.5843C57.1566 59.9655 57.6203 60.4834 57.9467 61.1381L57.2567 61.5856C57.0119 61.0552 56.6483 60.6326 56.1661 60.3177C55.6838 60.0028 55.1533 59.8453 54.5746 59.8453C53.6026 59.8453 52.8087 60.1975 52.1929 60.9019C51.5771 61.6064 51.2692 62.4724 51.2692 63.5C51.2692 64.5276 51.5771 65.3936 52.1929 66.0981C52.8087 66.8025 53.6026 67.1547 54.5746 67.1547C55.1533 67.1547 55.6838 66.9972 56.1661 66.6823C56.6483 66.3674 57.0119 65.9448 57.2567 65.4144L57.9467 65.8494C57.6277 66.5041 57.164 67.0262 56.5556 67.4157C55.9546 67.8052 55.2943 68 54.5746 68Z" fill="white"></path><path d="M65.7385 67.8508H64.7146L61.0642 63.6367V67.8508H60.2852V59.1492H61.0642V63.1271L64.6033 59.1492H65.6272L61.8878 63.3757L65.7385 67.8508Z" fill="white"></path><path d="M68.5774 67.0304H72.1387V67.8508H67.7983V59.1492H68.5774V67.0304Z" fill="white"></path><path d="M80.2011 66.6948C79.4221 67.5649 78.4686 68 77.3409 68C76.2131 68 75.2597 67.5649 74.4807 66.6948C73.7016 65.8163 73.3121 64.7514 73.3121 63.5C73.3121 62.2486 73.7016 61.1878 74.4807 60.3177C75.2597 59.4392 76.2131 59 77.3409 59C78.4686 59 79.4221 59.4392 80.2011 60.3177C80.9801 61.1878 81.3697 62.2486 81.3697 63.5C81.3697 64.7514 80.9801 65.8163 80.2011 66.6948ZM75.026 66.0981C75.6492 66.8025 76.4209 67.1547 77.3409 67.1547C78.2609 67.1547 79.0325 66.8025 79.6558 66.0981C80.279 65.3854 80.5906 64.5193 80.5906 63.5C80.5906 62.4807 80.279 61.6188 79.6558 60.9144C79.0325 60.2017 78.2609 59.8453 77.3409 59.8453C76.4209 59.8453 75.6492 60.2017 75.026 60.9144C74.4028 61.6188 74.0911 62.4807 74.0911 63.5C74.0911 64.5193 74.4028 65.3854 75.026 66.0981Z" fill="white"></path><path d="M91.2047 63.7113V64.1588C91.2047 65.2362 90.8597 66.1478 90.1697 66.8936C89.4797 67.6312 88.556 68 87.3985 68C86.2188 68 85.2431 67.5649 84.4715 66.6948C83.6999 65.8246 83.3141 64.7597 83.3141 63.5C83.3141 62.2403 83.6999 61.1754 84.4715 60.3052C85.2431 59.4351 86.2188 59 87.3985 59C88.1182 59 88.7785 59.1948 89.3795 59.5843C89.9805 59.9738 90.4442 60.4917 90.7707 61.1381L90.0807 61.5856C89.8358 61.0552 89.4723 60.6326 88.99 60.3177C88.5077 60.0028 87.9772 59.8453 87.3985 59.8453C86.4266 59.8453 85.6327 60.1975 85.0169 60.9019C84.401 61.6064 84.0931 62.4724 84.0931 63.5C84.0931 64.5276 84.401 65.3936 85.0169 66.0981C85.6327 66.8025 86.4266 67.1547 87.3985 67.1547C88.274 67.1547 88.9752 66.9102 89.5019 66.4213C90.0287 65.924 90.3292 65.2942 90.4034 64.5318H87.3095V63.7113H91.2047Z" fill="white"></path><path d="M93.5982 59.1492H94.3773V67.8508H93.5982V59.1492Z" fill="white"></path><path d="M99.5602 68C98.8479 68 98.2358 67.8135 97.7239 67.4406C97.2193 67.0594 96.8669 66.5373 96.6666 65.8743L97.3343 65.4392C97.4753 65.9779 97.735 66.4006 98.1134 66.7072C98.4918 67.0055 98.9778 67.1547 99.5713 67.1547C100.15 67.1547 100.599 67.0138 100.918 66.732C101.244 66.442 101.408 66.0608 101.408 65.5884C101.408 65.1326 101.259 64.7887 100.962 64.5566C100.666 64.3246 100.176 64.0843 99.4934 63.8356C98.6847 63.5373 98.1505 63.297 97.8908 63.1146C97.2972 62.7169 97.0005 62.1409 97.0005 61.3867C97.0005 60.6492 97.2305 60.0691 97.6905 59.6464C98.1505 59.2155 98.7181 59 99.3932 59C100.002 59 100.528 59.1782 100.974 59.5345C101.419 59.8826 101.749 60.3301 101.964 60.8771L101.307 61.2873C100.951 60.326 100.313 59.8453 99.3932 59.8453C98.911 59.8453 98.5215 59.9779 98.2247 60.2431C97.9279 60.5083 97.7795 60.8771 97.7795 61.3494C97.7795 61.7804 97.9131 62.1036 98.1802 62.3191C98.4473 62.5345 98.8887 62.7541 99.5045 62.9779C99.7865 63.0856 99.9868 63.1644 100.106 63.2141C100.232 63.2555 100.41 63.3301 100.64 63.4378C100.877 63.5373 101.052 63.6285 101.163 63.7113C101.274 63.7859 101.408 63.8936 101.563 64.0345C101.727 64.1671 101.842 64.3039 101.908 64.4448C101.983 64.5773 102.046 64.7431 102.098 64.942C102.157 65.1326 102.187 65.3398 102.187 65.5635C102.187 66.3011 101.946 66.8936 101.463 67.3412C100.981 67.7804 100.347 68 99.5602 68Z" fill="white"></path><path d="M109.196 59.1492V59.9696H106.803V67.8508H106.024V59.9696H103.631V59.1492H109.196Z" fill="white"></path><path d="M111.366 59.1492H112.145V67.8508H111.366V59.1492Z" fill="white"></path><path d="M118.628 68C117.448 68 116.472 67.5649 115.701 66.6948C114.929 65.8246 114.543 64.7597 114.543 63.5C114.543 62.2403 114.929 61.1754 115.701 60.3052C116.472 59.4351 117.448 59 118.628 59C119.348 59 120.008 59.1948 120.609 59.5843C121.21 59.9655 121.674 60.4834 122 61.1381L121.31 61.5856C121.065 61.0552 120.702 60.6326 120.219 60.3177C119.737 60.0028 119.207 59.8453 118.628 59.8453C117.656 59.8453 116.862 60.1975 116.246 60.9019C115.63 61.6064 115.322 62.4724 115.322 63.5C115.322 64.5276 115.63 65.3936 116.246 66.0981C116.862 66.8025 117.656 67.1547 118.628 67.1547C119.207 67.1547 119.737 66.9972 120.219 66.6823C120.702 66.3674 121.065 65.9448 121.31 65.4144L122 65.8494C121.681 66.5041 121.217 67.0262 120.609 67.4157C120.008 67.8052 119.348 68 118.628 68Z" fill="white"></path></svg>